<svg width="16" height="16" viewBox="0 0 16 16" fill="none" xmlns="http://www.w3.org/2000/svg" class=""><path d="M6.244 14L12 8L6.244 2C6.00333 1.99978 5.76791 2.07035 5.56704 2.20291C5.36617 2.33548 5.20872 2.52419 5.11428 2.74556C5.01985 2.96694 4.99261 3.21119 5.03594 3.44793C5.07928 3.68467 5.19128 3.90343 5.358 4.077L9.122 8L5.358 11.923C5.19128 12.0966 5.07928 12.3153 5.03594 12.5521C4.99261 12.7888 5.01985 13.0331 5.11428 13.2544C5.20872 13.4758 5.36617 13.6645 5.56704 13.7971C5.76791 13.9297 6.00333 14.0002 6.244 14Z" fill="currentColor"></path></svg>