<?xml version="1.0" encoding="UTF-8"?>
<svg width="20px" height="20px" viewBox="0 0 20 20" version="1.1" xmlns="http://www.w3.org/2000/svg" xmlns:xlink="http://www.w3.org/1999/xlink">
    <title>Icons/20/Flow@2x</title>
    <g id="Icons/20/Flow" stroke="none" stroke-width="1" fill="none" fill-rule="evenodd">
        <g id="Piece-of-Magic" fill="#3C4650" opacity="0.00999999978">
            <rect id="Rectangle" x="19.5" y="19.5" width="1" height="1"></rect>
            <rect id="Rectangle" x="0" y="0" width="1" height="1"></rect>
        </g>
        <path d="M13,10 L9,10 C7.34314575,10 6,11.3431458 6,13 L6,13 L6,13" id="Line" stroke="#41474D" stroke-linecap="square"></path>
        <line x1="6" y1="7" x2="6" y2="13" id="Line" stroke="#41474D" stroke-linecap="square"></line>
        <path d="M4.2819426,13 L7.7180574,13 C8.16381677,13 8.32545989,13.0464128 8.48842285,13.1335664 C8.65138581,13.2207199 8.7792801,13.3486142 8.86643365,13.5115771 C8.95358719,13.6745401 9,13.8361832 9,14.2819426 L9,17.7180574 C9,18.1638168 8.95358719,18.3254599 8.86643365,18.4884229 C8.7792801,18.6513858 8.65138581,18.7792801 8.48842285,18.8664336 C8.32545989,18.9535872 8.16381677,19 7.7180574,19 L4.2819426,19 C3.83618323,19 3.67454011,18.9535872 3.51157715,18.8664336 C3.34861419,18.7792801 3.2207199,18.6513858 3.13356635,18.4884229 C3.04641281,18.3254599 3,18.1638168 3,17.7180574 L3,14.2819426 C3,13.8361832 3.04641281,13.6745401 3.13356635,13.5115771 C3.2207199,13.3486142 3.34861419,13.2207199 3.51157715,13.1335664 C3.67454011,13.0464128 3.83618323,13 4.2819426,13 Z" id="Rectangle" fill="#41474D"></path>
        <path d="M13.2819426,7 L16.7180574,7 C17.1638168,7 17.3254599,7.04641281 17.4884229,7.13356635 C17.6513858,7.2207199 17.7792801,7.34861419 17.8664336,7.51157715 C17.9535872,7.67454011 18,7.83618323 18,8.2819426 L18,11.7180574 C18,12.1638168 17.9535872,12.3254599 17.8664336,12.4884229 C17.7792801,12.6513858 17.6513858,12.7792801 17.4884229,12.8664336 C17.3254599,12.9535872 17.1638168,13 16.7180574,13 L13.2819426,13 C12.8361832,13 12.6745401,12.9535872 12.5115771,12.8664336 C12.3486142,12.7792801 12.2207199,12.6513858 12.1335664,12.4884229 C12.0464128,12.3254599 12,12.1638168 12,11.7180574 L12,8.2819426 C12,7.83618323 12.0464128,7.67454011 12.1335664,7.51157715 C12.2207199,7.34861419 12.3486142,7.2207199 12.5115771,7.13356635 C12.6745401,7.04641281 12.8361832,7 13.2819426,7 Z" id="Rectangle" fill="#41474D"></path>
        <path d="M4.2819426,1 L7.7180574,1 C8.16381677,1 8.32545989,1.04641281 8.48842285,1.13356635 C8.65138581,1.2207199 8.7792801,1.34861419 8.86643365,1.51157715 C8.95358719,1.67454011 9,1.83618323 9,2.2819426 L9,5.7180574 C9,6.16381677 8.95358719,6.32545989 8.86643365,6.48842285 C8.7792801,6.65138581 8.65138581,6.7792801 8.48842285,6.86643365 C8.32545989,6.95358719 8.16381677,7 7.7180574,7 L4.2819426,7 C3.83618323,7 3.67454011,6.95358719 3.51157715,6.86643365 C3.34861419,6.7792801 3.2207199,6.65138581 3.13356635,6.48842285 C3.04641281,6.32545989 3,6.16381677 3,5.7180574 L3,2.2819426 C3,1.83618323 3.04641281,1.67454011 3.13356635,1.51157715 C3.2207199,1.34861419 3.34861419,1.2207199 3.51157715,1.13356635 C3.67454011,1.04641281 3.83618323,1 4.2819426,1 Z" id="Rectangle" fill="#000000"></path>
    </g>
</svg>